<?xml version="1.0" encoding="UTF-8"?>
<svg width="361px" height="111px" viewBox="0 0 361 111" version="1.1" xmlns="http://www.w3.org/2000/svg" xmlns:xlink="http://www.w3.org/1999/xlink">
    <title>Logo 1</title>
    <g id="Page-1" stroke="none" stroke-width="1" fill="none" fill-rule="evenodd">
        <g id="Artboard" transform="translate(-119, -339)">
            <g id="Logo-1" transform="translate(119, 339)">
                <g id="up" transform="translate(2, 42)" fill="#FFCC33" fill-rule="nonzero">
                    <path d="M21.7876921,51.1663631 C17.4216944,51.1663631 13.605054,50.3802953 10.337771,48.8081596 C7.070488,47.2360239 4.53070541,44.8295228 2.71842325,41.5886563 C0.906141083,38.3477898 0,34.2794575 0,29.3836594 L0,0.523388116 L9.17187943,0.523388116 L9.17187943,28.3457541 C9.17187943,33.2297242 10.3609097,36.902312 12.7389702,39.3635175 C15.1170308,41.824723 18.477615,43.0553258 22.8207228,43.0553258 C25.9924654,43.0553258 28.7524388,42.4143971 31.1006429,41.1325398 C33.4488471,39.8506825 35.2713302,37.9655981 36.5680922,35.4772868 C37.8648542,32.9889756 38.5132352,29.9612591 38.5132352,26.3941374 L38.5132352,0.523388116 L47.6851147,0.523388116 L47.6851147,50.642975 L38.9162964,50.642975 L38.9162964,37.1472498 L40.3986655,40.7074718 C38.7277036,44.0281772 36.2399208,46.6015021 32.9353174,48.4274465 C29.6307139,50.2533909 25.9148388,51.1663631 21.7876921,51.1663631 Z" id="Path"></path>
                    <path d="M79.4056197,51.1663631 C75.2068177,51.1663631 71.3643018,50.2164285 67.878072,48.3165592 C64.3918422,46.4166899 61.6137062,43.5656539 59.543664,39.7634511 C57.4736217,35.9612484 56.4386006,31.2372024 56.4386006,25.5913133 C56.4386006,19.8813559 57.446751,15.1388288 59.4630518,11.3637318 C61.4793525,7.58863485 64.2306178,4.75090531 67.7168475,2.85054319 C71.2030773,0.950181062 75.0993347,0 79.4056197,0 C84.3587928,0 88.7581302,1.06993936 92.6036317,3.20981808 C96.4491332,5.3496968 99.47657,8.3337976 101.685942,12.1621205 C103.895314,15.9904433 105,20.4668409 105,25.5913133 C105,30.7049433 103.895314,35.1759198 101.685942,39.0042426 C99.47657,42.8325655 96.4491332,45.8166663 92.6036317,47.956545 C88.7581302,50.0964238 84.3587928,51.1663631 79.4056197,51.1663631 Z M52.602056,69 L52.602056,0.523388116 L61.3708743,0.523388116 L61.3708743,14.0279843 L60.8185313,25.6859371 L61.7739354,37.3438899 L61.7739354,69 L52.602056,69 Z M78.6801097,43.2150035 C81.9155459,43.2150035 84.8153466,42.4927575 87.3795119,41.0482654 C89.9436772,39.6037734 91.9793846,37.5464441 93.4866341,34.8762776 C94.9938836,32.2061111 95.7475084,29.111123 95.7475084,25.5913133 C95.7475084,22.0074353 94.9938836,18.8961838 93.4866341,16.2575586 C91.9793846,13.6189333 89.9436772,11.5749105 87.3795119,10.1254902 C84.8153466,8.67606977 81.9155459,7.95135957 78.6801097,7.95135957 C75.4446735,7.95135957 72.5448727,8.67606977 69.9807074,10.1254902 C67.4165421,11.5749105 65.3808347,13.6189333 63.8735852,16.2575586 C62.3663357,18.8961838 61.612711,22.0074353 61.612711,25.5913133 C61.612711,29.111123 62.3663357,32.2061111 63.8735852,34.8762776 C65.3808347,37.5464441 67.4165421,39.6037734 69.9807074,41.0482654 C72.5448727,42.4927575 75.4446735,43.2150035 78.6801097,43.2150035 Z" id="Shape"></path>
                </g>
                <g id="start" transform="translate(112, 0)" fill="#CCCCCC" fill-rule="nonzero">
                    <path d="M32.7638902,58.14367 C32.7638902,62.5177809 29.4554844,66.1450925 22.198336,66.1450925 C15.3680788,66.1450925 9.71177202,62.8378378 6.40336617,59.4238976 L0,67.1052632 C3.52185139,70.7325747 10.9924453,74.8933144 21.6647222,74.8933144 C36.7126327,74.8933144 43.3294444,65.7183499 43.3294444,57.7169275 C43.3294444,37.8733997 14.1941283,42.5675676 14.1941283,30.6187767 C14.1941283,26.5647226 17.3958114,23.1507824 24.0126231,23.1507824 C28.8151477,23.1507824 33.2975041,25.3911807 35.8588505,28.1650071 L42.6891078,21.1237553 C38.9538108,17.0697013 32.4437219,14.2958748 24.3327914,14.2958748 C11.2058908,14.2958748 3.73529693,22.2972973 3.73529693,31.1522048 C3.73529693,50.8890469 32.7638902,46.3015647 32.7638902,58.14367 Z" id="Path"></path>
                    <path d="M79.1290045,74.4665718 C87.0264894,74.4665718 91.0819547,72.8662873 93.2164101,71.4793741 L90.4416181,63.2645804 C88.627331,64.544808 85.852539,65.5049787 81.690351,65.5049787 C76.8878263,65.5049787 73.8995888,62.9445235 73.8995888,57.1834993 L73.8995888,23.5775249 L89.5878359,23.5775249 L89.5878359,15.2560455 L73.8995888,15.2560455 L73.8995888,0 L66.855886,0 L63.4407574,14.829303 L55.1163814,16.9630156 L55.1163814,23.5775249 L63.4407574,23.5775249 L63.4407574,57.3968706 C63.4407574,69.3456615 69.3105097,74.4665718 79.1290045,74.4665718 Z" id="Path"></path>
                    <path d="M137.233623,59.7439545 C134.885722,63.371266 130.189921,66.6785206 124.320168,66.6785206 C118.343693,66.6785206 115.035287,62.9445235 115.035287,58.3570413 C115.035287,50.6756757 124.320168,47.4751067 137.233623,48.1152205 L137.233623,59.7439545 Z M126.241178,14.2958748 C113.861337,14.2958748 108.20503,21.4438122 106.070575,24.3243243 L113.647891,30.1920341 C115.355456,27.2048364 118.877307,23.257468 126.027733,23.257468 C132.964713,23.257468 137.233623,25.8179232 137.233623,34.4594595 L137.233623,40.3271693 C117.169743,39.7937411 104.576456,46.0881935 104.576456,59.3172119 C104.576456,67.3186344 110.659654,75 121.652099,75 C131.150426,75 135.739505,70.7325747 138.407574,67.5320057 L138.834465,67.5320057 C140.328584,71.4793741 143.743712,74.4665718 149.506742,74.4665718 C151.000861,74.4665718 152.601702,74.1465149 153.989098,73.3997155 L153.989098,65.8250356 L152.388257,65.8250356 C148.65296,65.8250356 147.158841,62.9445235 147.158841,58.2503556 L147.158841,32.6458037 C147.158841,19.7368421 139.474802,14.2958748 126.241178,14.2958748 Z" id="Shape"></path>
                    <path d="M202.061777,14.7226174 C200.781104,14.4025605 198.860094,14.1891892 196.40547,14.1891892 C189.361767,14.1891892 184.132352,17.7098151 181.571005,22.4039829 L181.144114,22.4039829 L178.902936,15.2560455 L170.792005,15.2560455 L170.792005,73.9331437 L181.250837,73.9331437 L181.250837,31.3655761 C184.239074,26.8847795 190.002104,24.6443812 195.444965,24.6443812 C197.57942,24.6443812 199.927321,24.9644381 202.061777,25.4978663 L202.061777,14.7226174 Z" id="Path"></path>
                    <path d="M233.912594,74.4665718 C241.810079,74.4665718 245.865545,72.8662873 248,71.4793741 L245.225208,63.2645804 C243.410921,64.544808 240.636129,65.5049787 236.473941,65.5049787 C231.671416,65.5049787 228.683179,62.9445235 228.683179,57.1834993 L228.683179,23.5775249 L244.371426,23.5775249 L244.371426,15.2560455 L228.683179,15.2560455 L228.683179,0 L221.639476,0 L218.224347,14.829303 L209.899971,16.9630156 L209.899971,23.5775249 L218.224347,23.5775249 L218.224347,57.3968706 C218.224347,69.3456615 224.0941,74.4665718 233.912594,74.4665718 Z" id="Path"></path>
                </g>
                <g id="productions" transform="translate(113, 85)" fill="#060202" fill-rule="nonzero">
                    <path d="M7.15440406,20.7222222 C5.90142574,20.7222222 4.77102139,20.4244068 3.763191,19.828776 C2.75536061,19.2331453 1.95635995,18.3844039 1.366189,17.2825521 C0.776018049,16.1807002 0.480932575,14.8765914 0.480932575,13.3702257 C0.480932575,11.8456308 0.773038821,10.5339265 1.35725131,9.43511285 C1.9414638,8.33629919 2.73748524,7.48907697 3.74531563,6.89344618 C4.75314602,6.29781539 5.88950883,6 7.15440406,6 C8.49221946,6 9.69079139,6.31170428 10.7501199,6.93511285 C11.8094483,7.55852141 12.6447672,8.42274306 13.2560765,9.52777778 C13.8673858,10.6328125 14.1730404,11.9136285 14.1730404,13.3702257 C14.1730404,14.8146701 13.8673858,16.0894097 13.2560765,17.1944444 C12.6447672,18.2994792 11.8094483,19.1637008 10.7501199,19.7871094 C9.69079139,20.4105179 8.49221946,20.7222222 7.15440406,20.7222222 Z M0,26 L0,6.11111111 L1.31639332,6.11111111 L1.31639332,10.8702257 L1.08954637,13.3980035 L1.36193296,15.9257812 L1.36193296,26 L0,26 Z M7.07268809,19.4813368 C8.16223445,19.4813368 9.13984695,19.2267072 10.0055256,18.7174479 C10.8712042,18.2081887 11.5537312,17.4905961 12.0531067,16.5646701 C12.5524821,15.6387442 12.8021698,14.5739294 12.8021698,13.3702257 C12.8021698,12.1480035 12.5524821,11.078559 12.0531067,10.1618924 C11.5537312,9.24522569 10.8712042,8.52922454 10.0055256,8.01388889 C9.13984695,7.49855324 8.16223445,7.24088542 7.07268809,7.24088542 C5.98314172,7.24088542 5.00560015,7.49855324 4.14006339,8.01388889 C3.27452662,8.52922454 2.59207053,9.24522569 2.09269511,10.1618924 C1.59331969,11.078559 1.34363198,12.1480035 1.34363198,13.3702257 C1.34363198,14.5739294 1.59331969,15.6387442 2.09269511,16.5646701 C2.59207053,17.4905961 3.27452662,18.2081887 4.14006339,18.7174479 C5.00560015,19.2267072 5.98314172,19.4813368 7.07268809,19.4813368 Z" id="Shape"></path>
                    <path d="M27.2015514,20.6111111 L27.2015514,6.11111111 L28.5179447,6.11111111 L28.5179447,10.0924479 L28.3817514,9.64800347 C28.7752933,8.48133681 29.4456906,7.58166956 30.3929434,6.94900174 C31.3401961,6.31633391 32.5220276,6 33.9384379,6 L33.9384379,7.36111111 C33.8839606,7.35503472 33.8294833,7.35040509 33.7750059,7.34722222 C33.7205286,7.34403935 33.6630721,7.34244792 33.6026363,7.34244792 C32.0287525,7.34244792 30.7954229,7.84403935 29.9026475,8.84722222 C29.0098721,9.85040509 28.5634844,11.2501447 28.5634844,13.046441 L28.5634844,20.6111111 L27.2015514,20.6111111 Z" id="Path"></path>
                    <path d="M51.9242734,20.7222222 C50.5648941,20.7222222 49.3519225,20.4074074 48.2853588,19.7777778 C47.218795,19.1481481 46.3752478,18.27568 45.7547171,17.1603733 C45.1341864,16.0450666 44.8239211,14.7750289 44.8239211,13.3502604 C44.8239211,11.9069734 45.1347539,10.6357784 45.7564195,9.53667535 C46.3780852,8.43757234 47.220994,7.57335069 48.285146,6.94401042 C49.349298,6.31467014 50.5623405,6 51.9242734,6 C53.2862064,6 54.5040014,6.31445312 55.5776586,6.94335937 C56.6513157,7.57226562 57.4942245,8.43590856 58.106385,9.53428819 C58.7185455,10.6326678 59.0246258,11.9046586 59.0246258,13.3502604 C59.0246258,14.7773437 58.7189002,16.0479601 58.107449,17.1621094 C57.4959979,18.2762587 56.6523797,19.1481481 55.5765946,19.7777778 C54.5008094,20.4074074 53.283369,20.7222222 51.9242734,20.7222222 Z M51.9242734,19.4813368 C53.0197782,19.4813368 54.00037,19.223669 54.8660486,18.7083333 C55.7317272,18.1929977 56.4126937,17.4723669 56.908948,16.546441 C57.4052024,15.620515 57.6533295,14.5552662 57.6533295,13.3506944 C57.6533295,12.1293403 57.4052024,11.0603299 56.908948,10.1436632 C56.4126937,9.22699653 55.7317272,8.51403356 54.8660486,8.00477431 C54.00037,7.49551505 53.0213388,7.24088542 51.9289551,7.24088542 C50.8362876,7.24088542 49.8601647,7.49551505 49.0005864,8.00477431 C48.1410081,8.51403356 47.458552,9.22699653 46.9532181,10.1436632 C46.4478842,11.0603299 46.1952173,12.1293403 46.1952173,13.3506944 C46.1952173,14.5552662 46.4478842,15.620515 46.9532181,16.546441 C47.458552,17.4723669 48.1407953,18.1929977 48.999948,18.7083333 C49.8591007,19.223669 50.8338758,19.4813368 51.9242734,19.4813368 Z" id="Shape"></path>
                    <path d="M77.536903,20.7222222 C76.2053298,20.7222222 75.0083894,20.4105179 73.9460817,19.7871094 C72.883774,19.1637008 72.0468945,18.296441 71.4354434,17.1853299 C70.8239922,16.0742187 70.5182667,14.796441 70.5182667,13.3519965 C70.5182667,11.89511 70.8239922,10.6172598 71.4354434,9.51844618 C72.0468945,8.41963252 72.883774,7.55852141 73.9460817,6.93511285 C75.0083894,6.31170428 76.2053298,6 77.536903,6 C78.7958398,6 79.9277338,6.29781539 80.9325849,6.89344618 C81.9374361,7.48907697 82.7349471,8.33318866 83.3251181,9.42578125 C83.915289,10.5183738 84.2103745,11.8271123 84.2103745,13.3519965 C84.2103745,14.8580729 83.9183392,16.1651476 83.3342686,17.2732205 C82.750198,18.3812934 81.9557371,19.2331453 80.9508859,19.828776 C79.9460347,20.4244068 78.8080405,20.7222222 77.536903,20.7222222 Z M77.618619,19.4813368 C78.7081654,19.4813368 79.6857069,19.223669 80.5512437,18.7083333 C81.4167805,18.1929977 82.0992366,17.4723669 82.598612,16.546441 C83.0979874,15.620515 83.3476751,14.5557002 83.3476751,13.3519965 C83.3476751,12.1297743 83.0979874,11.0603299 82.598612,10.1436632 C82.0992366,9.22699653 81.4167805,8.51403356 80.5512437,8.00477431 C79.6857069,7.49551505 78.7081654,7.24088542 77.618619,7.24088542 C76.5290726,7.24088542 75.5545103,7.49551505 74.694932,8.00477431 C73.8353537,8.51403356 73.1528976,9.22699653 72.6475637,10.1436632 C72.1422298,11.0603299 71.8895629,12.1297743 71.8895629,13.3519965 C71.8895629,14.5557002 72.1422298,15.620515 72.6475637,16.546441 C73.1528976,17.4723669 73.8353537,18.1929977 74.694932,18.7083333 C75.5545103,19.223669 76.5290726,19.4813368 77.618619,19.4813368 Z M83.3749138,20.6111111 L83.3749138,15.8519965 L83.6021863,13.3242187 L83.3297997,10.796441 L83.3297997,0 L84.6917327,0 L84.6917327,20.6111111 L83.3749138,20.6111111 Z" id="Shape"></path>
                    <path d="M105.047017,20.7222222 C103.830357,20.7222222 102.777129,20.4938513 101.887333,20.0371094 C100.997537,19.5803675 100.310541,18.8951823 99.8263453,17.9815538 C99.3421498,17.0679253 99.100052,15.9351852 99.100052,14.5833333 L99.100052,6.11111111 L100.461985,6.11111111 L100.461985,14.4631076 C100.461985,16.10489 100.870565,17.348669 101.687725,18.1944444 C102.504884,19.0402199 103.657988,19.4631076 105.147034,19.4631076 C106.218422,19.4631076 107.144536,19.2346644 107.925378,18.7777778 C108.706219,18.3208912 109.306959,17.6681134 109.727598,16.8194444 C110.148237,15.9707755 110.358556,14.9754051 110.358556,13.8333333 L110.358556,6.11111111 L111.720489,6.11111111 L111.720489,20.6111111 L110.404096,20.6111111 L110.404096,16.5924479 L110.603704,17.0555556 C110.174127,18.1912616 109.476562,19.0862992 108.511009,19.7406684 C107.545455,20.3950376 106.390791,20.7222222 105.047017,20.7222222 Z" id="Path"></path>
                    <path d="M131.939864,20.7222222 C130.559772,20.7222222 129.326513,20.4074074 128.240088,19.7777778 C127.153663,19.1481481 126.300185,18.2792969 125.679654,17.171224 C125.059123,16.063151 124.748858,14.7900752 124.748858,13.3519965 C124.748858,11.9075521 125.059123,10.6328125 125.679654,9.52777778 C126.300185,8.42274306 127.153663,7.55852141 128.240088,6.93511285 C129.326513,6.31170428 130.559772,6 131.939864,6 C133.071971,6 134.107111,6.22222222 135.045284,6.66666667 C135.983457,7.11111111 136.746069,7.77473958 137.333118,8.65755208 L136.31635,9.41666667 C135.801937,8.67592593 135.163389,8.12811053 134.400707,7.77322049 C133.638024,7.41833044 132.814764,7.24088542 131.930926,7.24088542 C130.823221,7.24088542 129.830499,7.49551505 128.952762,8.00477431 C128.075025,8.51403356 127.383489,9.22699653 126.878155,10.1436632 C126.372821,11.0603299 126.120154,12.1297743 126.120154,13.3519965 C126.120154,14.5742187 126.372821,15.6436632 126.878155,16.5603299 C127.383489,17.4769965 128.075025,18.1929977 128.952762,18.7083333 C129.830499,19.223669 130.823221,19.4813368 131.930926,19.4813368 C132.814764,19.4813368 133.638024,19.3023727 134.400707,18.9444444 C135.163389,18.5865162 135.801937,18.0402199 136.31635,17.3055556 L137.333118,18.0646701 C136.746069,18.9414062 135.983457,19.6035156 135.045284,20.0509983 C134.107111,20.4984809 133.071971,20.7222222 131.939864,20.7222222 Z" id="Path"></path>
                    <path d="M154.52008,20.7222222 C153.27306,20.7222222 152.316657,20.3703704 151.65087,19.6666667 C150.985084,18.962963 150.65219,17.9969618 150.65219,16.7686632 L150.65219,2.93532986 L152.014123,2.93532986 L152.014123,16.6480035 C152.014123,17.5739294 152.239623,18.2838542 152.690621,18.7777778 C153.141619,19.2717014 153.796837,19.5186632 154.656273,19.5186632 C155.546069,19.5186632 156.284492,19.2501447 156.871542,18.7131076 L157.425679,19.703559 C157.074414,20.0493345 156.637034,20.3055556 156.113542,20.4722222 C155.590049,20.6388889 155.058895,20.7222222 154.52008,20.7222222 Z M148.028341,7.29644097 L148.028341,6.11111111 L156.535741,6.11111111 L156.535741,7.29644097 L148.028341,7.29644097 Z" id="Shape"></path>
                    <path d="M170.036247,20.6111111 L170.036247,6.11111111 L171.39818,6.11111111 L171.39818,20.6111111 L170.036247,20.6111111 Z M170.717213,2.58333333 C170.408508,2.58333333 170.145201,2.47222222 169.927292,2.25 C169.709383,2.02777778 169.600428,1.76851852 169.600428,1.47222222 C169.600428,1.15740741 169.709383,0.888888889 169.927292,0.666666667 C170.145201,0.444444444 170.408508,0.333333333 170.717213,0.333333333 C171.044077,0.333333333 171.311924,0.439814815 171.520754,0.652777778 C171.729583,0.865740741 171.833998,1.12962963 171.833998,1.44444444 C171.833998,1.75925926 171.729583,2.02777778 171.520754,2.25 C171.311924,2.47222222 171.044077,2.58333333 170.717213,2.58333333 Z" id="Shape"></path>
                    <path d="M191.51768,20.7222222 C190.1583,20.7222222 188.945329,20.4074074 187.878765,19.7777778 C186.812201,19.1481481 185.968654,18.27568 185.348123,17.1603733 C184.727593,16.0450666 184.417327,14.7750289 184.417327,13.3502604 C184.417327,11.9069734 184.72816,10.6357784 185.349826,9.53667535 C185.971491,8.43757234 186.8144,7.57335069 187.878552,6.94401042 C188.942704,6.31467014 190.155747,6 191.51768,6 C192.879613,6 194.097408,6.31445312 195.171065,6.94335937 C196.244722,7.57226562 197.087631,8.43590856 197.699791,9.53428819 C198.311952,10.6326678 198.618032,11.9046586 198.618032,13.3502604 C198.618032,14.7773437 198.312306,16.0479601 197.700855,17.1621094 C197.089404,18.2762587 196.245786,19.1481481 195.170001,19.7777778 C194.094216,20.4074074 192.876775,20.7222222 191.51768,20.7222222 Z M191.51768,19.4813368 C192.613184,19.4813368 193.593776,19.223669 194.459455,18.7083333 C195.325133,18.1929977 196.0061,17.4723669 196.502354,16.546441 C196.998609,15.620515 197.246736,14.5552662 197.246736,13.3506944 C197.246736,12.1293403 196.998609,11.0603299 196.502354,10.1436632 C196.0061,9.22699653 195.325133,8.51403356 194.459455,8.00477431 C193.593776,7.49551505 192.614745,7.24088542 191.522361,7.24088542 C190.429694,7.24088542 189.453571,7.49551505 188.593993,8.00477431 C187.734414,8.51403356 187.051958,9.22699653 186.546624,10.1436632 C186.04129,11.0603299 185.788623,12.1293403 185.788623,13.3506944 C185.788623,14.5552662 186.04129,15.620515 186.546624,16.546441 C187.051958,17.4723669 187.734201,18.1929977 188.593354,18.7083333 C189.452507,19.223669 190.427282,19.4813368 191.51768,19.4813368 Z" id="Shape"></path>
                    <path d="M211.646401,20.6111111 L211.646401,6.11111111 L212.962794,6.11111111 L212.962794,10.1480035 L212.763186,9.68532986 C213.204963,8.53718171 213.926717,7.63592303 214.928447,6.98155382 C215.930177,6.32718461 217.151448,6 218.592259,6 C219.7604,6 220.77426,6.22837095 221.633838,6.68511285 C222.493417,7.14185475 223.165304,7.82552083 223.649499,8.73611111 C224.133695,9.64670139 224.375793,10.7809606 224.375793,12.1388889 L224.375793,20.6111111 L223.01386,20.6111111 L223.01386,12.2591146 C223.01386,10.6173322 222.609819,9.37355324 221.801739,8.52777778 C220.993659,7.68200231 219.860275,7.25911458 218.401588,7.25911458 C217.293883,7.25911458 216.33443,7.48755787 215.523228,7.94444444 C214.712027,8.40133102 214.090078,9.04947917 213.65738,9.88888889 C213.224683,10.7282986 213.008334,11.7282986 213.008334,12.8888889 L213.008334,20.6111111 L211.646401,20.6111111 Z" id="Path"></path>
                    <path d="M242.379899,20.7222222 C241.211474,20.7222222 240.111287,20.5447772 239.079339,20.1898872 C238.047391,19.8349971 237.249951,19.3890336 236.687019,18.8519965 L237.322446,17.75 C237.873177,18.2254051 238.602521,18.635923 239.510476,18.9815538 C240.418431,19.3271846 241.399023,19.5 242.452251,19.5 C243.941298,19.5 245.012685,19.25 245.666413,18.75 C246.320141,18.25 246.647005,17.5925926 246.647005,16.7777778 C246.647005,16.1791088 246.477543,15.708478 246.138621,15.3658854 C245.799698,15.0232928 245.35026,14.760923 244.790307,14.578776 C244.230354,14.3966291 243.612944,14.2468895 242.938078,14.1295573 C242.263212,14.0122251 241.588346,13.8779659 240.91348,13.7267795 C240.238614,13.5755932 239.621204,13.3611111 239.061251,13.0833333 C238.501298,12.8055556 238.05186,12.4228154 237.712937,11.9351128 C237.374015,11.4474103 237.204553,10.7961516 237.204553,9.98133681 C237.204553,9.24059606 237.405793,8.5708912 237.808273,7.97222222 C238.210752,7.37355324 238.811492,6.89518229 239.610493,6.53710937 C240.409494,6.17903646 241.405265,6 242.597808,6 C243.499521,6 244.399815,6.12811053 245.298691,6.3843316 C246.197567,6.64055266 246.928471,6.98466435 247.491403,7.41666667 L246.855976,8.51866319 C246.256726,8.06785301 245.586329,7.73907697 244.844784,7.53233507 C244.10324,7.32559317 243.351127,7.22222222 242.588445,7.22222222 C241.202394,7.22222222 240.187045,7.48148148 239.542396,8 C238.897748,8.51851852 238.575424,9.16362847 238.575424,9.93532986 C238.575424,10.5585937 238.744885,11.0492622 239.083808,11.4073351 C239.422731,11.765408 239.872169,12.0416667 240.432122,12.2361111 C240.992075,12.4305556 241.609484,12.5864439 242.28435,12.703776 C242.959217,12.8211082 243.631104,12.9553675 244.300011,13.1065538 C244.968919,13.2577402 245.583349,13.4675926 246.143302,13.7361111 C246.703255,14.0046296 247.152693,14.375 247.491616,14.8472222 C247.830539,15.3194444 248,15.9537037 248,16.75 C248,17.5402199 247.785141,18.2346644 247.355423,18.8333333 C246.925704,19.4320023 246.294676,19.8964844 245.462336,20.2267795 C244.629996,20.5570747 243.602517,20.7222222 242.379899,20.7222222 Z" id="Path"></path>
                </g>
                <g id="Circle-Arrow-2" fill="#B91922">
                    <g id="Circles:-Large,-Bottom" opacity="0.5" transform="translate(16.7391, 19.8333)">
                        <ellipse id="Oval" cx="2.0326087" cy="6.31060606" rx="2.0326087" ry="1.85606061"></ellipse>
                        <ellipse id="Oval" cx="10.1630435" cy="1.85606061" rx="2.0326087" ry="1.85606061"></ellipse>
                        <ellipse id="Oval" cx="18.2934783" cy="6.31060606" rx="2.0326087" ry="1.85606061"></ellipse>
                    </g>
                    <g id="Circles:-Large,-Middle" opacity="0.75" transform="translate(8.3696, 10.5)">
                        <ellipse id="Oval" cx="10.5615942" cy="7" rx="2.59057971" ry="2.45945946"></ellipse>
                        <ellipse id="Oval" cx="2.59057971" cy="11.5405405" rx="2.59057971" ry="2.45945946"></ellipse>
                        <ellipse id="Oval" cx="18.5326087" cy="2.45945946" rx="2.59057971" ry="2.45945946"></ellipse>
                        <ellipse id="Oval" cx="26.5036232" cy="7" rx="2.59057971" ry="2.45945946"></ellipse>
                        <ellipse id="Oval" cx="34.4746377" cy="11.1621622" rx="2.59057971" ry="2.45945946"></ellipse>
                    </g>
                    <g id="Circles:-Large,-Top">
                        <ellipse id="Oval" cx="19.4117647" cy="8.07692308" rx="3.23529412" ry="3.23076923"></ellipse>
                        <ellipse id="Oval" cx="11.3235294" cy="12.9230769" rx="3.23529412" ry="3.23076923"></ellipse>
                        <ellipse id="Oval" cx="3.23529412" cy="17.7692308" rx="3.23529412" ry="3.23076923"></ellipse>
                        <ellipse id="Oval" cx="27.5" cy="3.23076923" rx="3.23529412" ry="3.23076923"></ellipse>
                        <ellipse id="Oval" cx="35.5882353" cy="8.07692308" rx="3.23529412" ry="3.23076923"></ellipse>
                        <ellipse id="Oval" cx="43.6764706" cy="12.9230769" rx="3.23529412" ry="3.23076923"></ellipse>
                        <ellipse id="Oval" cx="51.7647059" cy="17.7692308" rx="3.23529412" ry="3.23076923"></ellipse>
                    </g>
                </g>
            </g>
        </g>
    </g>
</svg>