<?xml version="1.0" encoding="UTF-8"?>
<svg width="512px" height="512px" viewBox="0 0 512 512" version="1.1" xmlns="http://www.w3.org/2000/svg" xmlns:xlink="http://www.w3.org/1999/xlink">
    <title>Favicon</title>
    <g id="Favicon" stroke="none" stroke-width="1" fill="none" fill-rule="evenodd">
        <g id="Circle-Arrow-2" transform="translate(0, 0)" fill="#B91922">
            <g id="Circles:-Large,-Bottom" opacity="0.5" transform="translate(75, 91)">
                <ellipse id="Oval" cx="8.9" cy="27.8181818" rx="8.9" ry="8.18181818"></ellipse>
                <ellipse id="Oval" cx="44.5" cy="8.18181818" rx="8.9" ry="8.18181818"></ellipse>
                <ellipse id="Oval" cx="80.1" cy="27.8181818" rx="8.9" ry="8.18181818"></ellipse>
            </g>
            <g id="Circles:-Large,-Middle" opacity="0.75" transform="translate(36, 48)">
                <ellipse id="Oval" cx="46.7311828" cy="31.5" rx="11.4623656" ry="11.0675676"></ellipse>
                <ellipse id="Oval" cx="11.4623656" cy="51.9324324" rx="11.4623656" ry="11.0675676"></ellipse>
                <ellipse id="Oval" cx="82" cy="11.0675676" rx="11.4623656" ry="11.0675676"></ellipse>
                <ellipse id="Oval" cx="117.268817" cy="31.5" rx="11.4623656" ry="11.0675676"></ellipse>
                <ellipse id="Oval" cx="152.537634" cy="50.2297297" rx="11.4623656" ry="11.0675676"></ellipse>
            </g>
            <g id="Circles:-Large,-Top">
                <ellipse id="Oval" cx="85.7647059" cy="36.5384615" rx="14.2941176" ry="14.6153846"></ellipse>
                <ellipse id="Oval" cx="50.0294118" cy="58.4615385" rx="14.2941176" ry="14.6153846"></ellipse>
                <ellipse id="Oval" cx="14.2941176" cy="80.3846154" rx="14.2941176" ry="14.6153846"></ellipse>
                <ellipse id="Oval" cx="121.5" cy="14.6153846" rx="14.2941176" ry="14.6153846"></ellipse>
                <ellipse id="Oval" cx="157.235294" cy="36.5384615" rx="14.2941176" ry="14.6153846"></ellipse>
                <ellipse id="Oval" cx="192.970588" cy="58.4615385" rx="14.2941176" ry="14.6153846"></ellipse>
                <ellipse id="Oval" cx="228.705882" cy="80.3846154" rx="14.2941176" ry="14.6153846"></ellipse>
            </g>
        </g>
        <g id="up" transform="translate(0, 174)" fill="#FFCC33" fill-rule="nonzero">
            <path d="M106.459475,251 C85.1262457,251 66.4772981,247.135083 50.5126319,239.405249 C34.5479656,231.675415 22.1380271,219.843196 13.2828163,203.908592 C4.42760542,187.973988 0,167.970922 0,143.899396 L0,2 L44.8158282,2 L44.8158282,138.796251 C44.8158282,162.809623 50.6256926,180.866902 62.2454215,192.96809 C73.8651504,205.069279 90.2857068,211.119873 111.507091,211.119873 C127.004925,211.119873 140.490765,207.968572 151.964609,201.665971 C163.438453,195.36337 172.343508,186.094838 178.679773,173.860377 C185.016039,161.625916 188.184172,146.739322 188.184172,129.200596 L188.184172,2 L233,2 L233,248.42662 L190.153617,248.42662 L190.153617,182.071205 L197.396801,199.576008 C189.232111,215.903162 177.076256,228.555616 160.929233,237.533369 C144.782211,246.511123 126.625625,251 106.459475,251 Z" id="Path"></path>
            <path d="M387.442308,250.641025 C367.008405,250.641025 348.308405,245.987722 331.342308,236.681116 C314.376211,227.37451 300.856125,213.408565 290.782051,194.783282 C280.707977,176.157999 275.67094,153.017021 275.67094,125.360346 C275.67094,97.3898305 280.577208,74.1583207 290.389744,55.6658167 C300.202279,37.1733128 313.591595,23.2725507 330.557692,13.9635304 C347.523789,4.65451013 366.485328,0 387.442308,0 C411.547436,0 432.957265,5.24115223 451.671795,15.7234567 C470.386325,26.2057611 485.119658,40.8235303 495.871795,59.576764 C506.623932,78.3299978 512,100.257859 512,125.360346 C512,150.409722 506.623932,172.311027 495.871795,191.064261 C485.119658,209.817495 470.386325,224.435264 451.671795,234.917568 C432.957265,245.399873 411.547436,250.641025 387.442308,250.641025 Z M257,338 L257,2.56384324 L299.674359,2.56384324 L299.674359,68.7167927 L296.986325,125.823866 L301.635897,182.930939 L301.635897,338 L257,338 Z M383.911538,211.690887 C399.657123,211.690887 413.769302,208.152928 426.248077,201.07701 C438.726852,194.001093 448.633832,183.923161 455.969017,170.843215 C463.304202,157.763269 466.971795,142.602313 466.971795,125.360346 C466.971795,107.804538 463.304202,92.5639147 455.969017,79.6384752 C448.633832,66.7130358 438.726852,56.7002864 426.248077,49.6002271 C413.769302,42.5001678 399.657123,38.9501382 383.911538,38.9501382 C368.165954,38.9501382 354.053775,42.5001678 341.575,49.6002271 C329.096225,56.7002864 319.189245,66.7130358 311.85406,79.6384752 C304.518875,92.5639147 300.851282,107.804538 300.851282,125.360346 C300.851282,142.602313 304.518875,157.763269 311.85406,170.843215 C319.189245,183.923161 329.096225,194.001093 341.575,201.07701 C354.053775,208.152928 368.165954,211.690887 383.911538,211.690887 Z" id="Shape"></path>
        </g>
    </g>
</svg>